<?xml version="1.0" encoding="UTF-8" standalone="no"?>
<!DOCTYPE svg PUBLIC "-//W3C//DTD SVG 1.1//EN"
 "http://www.w3.org/Graphics/SVG/1.1/DTD/svg11.dtd">
<!-- Generated by graphviz version 2.40.1 (20161225.0304)
 -->
<!-- Title: g Pages: 1 -->
<svg width="365pt" height="2214pt"
 viewBox="0.00 0.00 365.38 2214.22" xmlns="http://www.w3.org/2000/svg" xmlns:xlink="http://www.w3.org/1999/xlink">
<g id="graph0" class="graph" transform="scale(1 1) rotate(0) translate(4 2210.2223)">
<title>g</title>
<polygon fill="#ffffff" stroke="transparent" points="-4,4 -4,-2210.2223 361.3771,-2210.2223 361.3771,4 -4,4"/>
<!-- aab_7 -->
<g id="node1" class="node">
<title>aab_7</title>
<ellipse fill="none" stroke="#000000" cx="317.2365" cy="-2171" rx="31.4206" ry="31.4206"/>
<ellipse fill="none" stroke="#000000" cx="317.2365" cy="-2171" rx="35.4461" ry="35.4461"/>
<text text-anchor="middle" x="317.2365" y="-2166.8" font-family="Times,serif" font-size="14.00" fill="#000000">aab_7</text>
</g>
<!-- aac_8 -->
<g id="node2" class="node">
<title>aac_8</title>
<ellipse fill="none" stroke="#000000" cx="317.2365" cy="-2083" rx="30.9268" ry="30.9268"/>
<ellipse fill="none" stroke="#000000" cx="317.2365" cy="-2083" rx="34.953" ry="34.953"/>
<text text-anchor="middle" x="317.2365" y="-2078.8" font-family="Times,serif" font-size="14.00" fill="#000000">aac_8</text>
</g>
<!-- aba_9 -->
<g id="node3" class="node">
<title>aba_9</title>
<ellipse fill="none" stroke="#000000" cx="317.2365" cy="-1995" rx="31.4206" ry="31.4206"/>
<ellipse fill="none" stroke="#000000" cx="317.2365" cy="-1995" rx="35.4461" ry="35.4461"/>
<text text-anchor="middle" x="317.2365" y="-1990.8" font-family="Times,serif" font-size="14.00" fill="#000000">aba_9</text>
</g>
<!-- abb_10 -->
<g id="node4" class="node">
<title>abb_10</title>
<ellipse fill="none" stroke="#000000" cx="317.2365" cy="-1902" rx="36.2677" ry="36.2677"/>
<ellipse fill="none" stroke="#000000" cx="317.2365" cy="-1902" rx="40.2818" ry="40.2818"/>
<text text-anchor="middle" x="317.2365" y="-1897.8" font-family="Times,serif" font-size="14.00" fill="#000000">abb_10</text>
</g>
<!-- abc_11 -->
<g id="node5" class="node">
<title>abc_11</title>
<ellipse fill="none" stroke="#000000" cx="317.2365" cy="-1805" rx="35.1594" ry="35.1594"/>
<ellipse fill="none" stroke="#000000" cx="317.2365" cy="-1805" rx="39.1412" ry="39.1412"/>
<text text-anchor="middle" x="317.2365" y="-1800.8" font-family="Times,serif" font-size="14.00" fill="#000000">abc_11</text>
</g>
<!-- aca_12 -->
<g id="node6" class="node">
<title>aca_12</title>
<ellipse fill="none" stroke="#000000" cx="317.2365" cy="-1709" rx="35.2804" ry="35.2804"/>
<ellipse fill="none" stroke="#000000" cx="317.2365" cy="-1709" rx="39.2955" ry="39.2955"/>
<text text-anchor="middle" x="317.2365" y="-1704.8" font-family="Times,serif" font-size="14.00" fill="#000000">aca_12</text>
</g>
<!-- acb_13 -->
<g id="node7" class="node">
<title>acb_13</title>
<ellipse fill="none" stroke="#000000" cx="317.2365" cy="-1612" rx="35.774" ry="35.774"/>
<ellipse fill="none" stroke="#000000" cx="317.2365" cy="-1612" rx="39.7886" ry="39.7886"/>
<text text-anchor="middle" x="317.2365" y="-1607.8" font-family="Times,serif" font-size="14.00" fill="#000000">acb_13</text>
</g>
<!-- acc_14 -->
<g id="node8" class="node">
<title>acc_14</title>
<ellipse fill="none" stroke="#000000" cx="317.2365" cy="-1515" rx="35.2804" ry="35.2804"/>
<ellipse fill="none" stroke="#000000" cx="317.2365" cy="-1515" rx="39.2955" ry="39.2955"/>
<text text-anchor="middle" x="317.2365" y="-1510.8" font-family="Times,serif" font-size="14.00" fill="#000000">acc_14</text>
</g>
<!-- baa_18 -->
<g id="node9" class="node">
<title>baa_18</title>
<ellipse fill="none" stroke="#000000" cx="317.2365" cy="-1418" rx="35.774" ry="35.774"/>
<ellipse fill="none" stroke="#000000" cx="317.2365" cy="-1418" rx="39.7886" ry="39.7886"/>
<text text-anchor="middle" x="317.2365" y="-1413.8" font-family="Times,serif" font-size="14.00" fill="#000000">baa_18</text>
</g>
<!-- bab_19 -->
<g id="node10" class="node">
<title>bab_19</title>
<ellipse fill="none" stroke="#000000" cx="317.2365" cy="-1320" rx="36.2677" ry="36.2677"/>
<ellipse fill="none" stroke="#000000" cx="317.2365" cy="-1320" rx="40.2818" ry="40.2818"/>
<text text-anchor="middle" x="317.2365" y="-1315.8" font-family="Times,serif" font-size="14.00" fill="#000000">bab_19</text>
</g>
<!-- bac_20 -->
<g id="node11" class="node">
<title>bac_20</title>
<ellipse fill="none" stroke="#000000" cx="317.2365" cy="-1222" rx="35.774" ry="35.774"/>
<ellipse fill="none" stroke="#000000" cx="317.2365" cy="-1222" rx="39.7886" ry="39.7886"/>
<text text-anchor="middle" x="317.2365" y="-1217.8" font-family="Times,serif" font-size="14.00" fill="#000000">bac_20</text>
</g>
<!-- bba_21 -->
<g id="node12" class="node">
<title>bba_21</title>
<ellipse fill="none" stroke="#000000" cx="317.2365" cy="-1124" rx="36.2677" ry="36.2677"/>
<ellipse fill="none" stroke="#000000" cx="317.2365" cy="-1124" rx="40.2818" ry="40.2818"/>
<text text-anchor="middle" x="317.2365" y="-1119.8" font-family="Times,serif" font-size="14.00" fill="#000000">bba_21</text>
</g>
<!-- bbc_22 -->
<g id="node13" class="node">
<title>bbc_22</title>
<ellipse fill="none" stroke="#000000" cx="317.2365" cy="-1026" rx="36.2677" ry="36.2677"/>
<ellipse fill="none" stroke="#000000" cx="317.2365" cy="-1026" rx="40.2818" ry="40.2818"/>
<text text-anchor="middle" x="317.2365" y="-1021.8" font-family="Times,serif" font-size="14.00" fill="#000000">bbc_22</text>
</g>
<!-- bca_23 -->
<g id="node14" class="node">
<title>bca_23</title>
<ellipse fill="none" stroke="#000000" cx="317.2365" cy="-928" rx="35.774" ry="35.774"/>
<ellipse fill="none" stroke="#000000" cx="317.2365" cy="-928" rx="39.7886" ry="39.7886"/>
<text text-anchor="middle" x="317.2365" y="-923.8" font-family="Times,serif" font-size="14.00" fill="#000000">bca_23</text>
</g>
<!-- bcb_24 -->
<g id="node15" class="node">
<title>bcb_24</title>
<ellipse fill="none" stroke="#000000" cx="317.2365" cy="-830" rx="36.2677" ry="36.2677"/>
<ellipse fill="none" stroke="#000000" cx="317.2365" cy="-830" rx="40.2818" ry="40.2818"/>
<text text-anchor="middle" x="317.2365" y="-825.8" font-family="Times,serif" font-size="14.00" fill="#000000">bcb_24</text>
</g>
<!-- bcc_25 -->
<g id="node16" class="node">
<title>bcc_25</title>
<ellipse fill="none" stroke="#000000" cx="317.2365" cy="-732" rx="35.774" ry="35.774"/>
<ellipse fill="none" stroke="#000000" cx="317.2365" cy="-732" rx="39.7886" ry="39.7886"/>
<text text-anchor="middle" x="317.2365" y="-727.8" font-family="Times,serif" font-size="14.00" fill="#000000">bcc_25</text>
</g>
<!-- caa_29 -->
<g id="node17" class="node">
<title>caa_29</title>
<ellipse fill="none" stroke="#000000" cx="317.2365" cy="-635" rx="35.2804" ry="35.2804"/>
<ellipse fill="none" stroke="#000000" cx="317.2365" cy="-635" rx="39.2955" ry="39.2955"/>
<text text-anchor="middle" x="317.2365" y="-630.8" font-family="Times,serif" font-size="14.00" fill="#000000">caa_29</text>
</g>
<!-- cab_30 -->
<g id="node18" class="node">
<title>cab_30</title>
<ellipse fill="none" stroke="#000000" cx="317.2365" cy="-538" rx="35.774" ry="35.774"/>
<ellipse fill="none" stroke="#000000" cx="317.2365" cy="-538" rx="39.7886" ry="39.7886"/>
<text text-anchor="middle" x="317.2365" y="-533.8" font-family="Times,serif" font-size="14.00" fill="#000000">cab_30</text>
</g>
<!-- cac_31 -->
<g id="node19" class="node">
<title>cac_31</title>
<ellipse fill="none" stroke="#000000" cx="317.2365" cy="-441" rx="35.2804" ry="35.2804"/>
<ellipse fill="none" stroke="#000000" cx="317.2365" cy="-441" rx="39.2955" ry="39.2955"/>
<text text-anchor="middle" x="317.2365" y="-436.8" font-family="Times,serif" font-size="14.00" fill="#000000">cac_31</text>
</g>
<!-- cbc_34 -->
<g id="node20" class="node">
<title>cbc_34</title>
<ellipse fill="none" stroke="#000000" cx="317.2365" cy="-344" rx="35.774" ry="35.774"/>
<ellipse fill="none" stroke="#000000" cx="317.2365" cy="-344" rx="39.7886" ry="39.7886"/>
<text text-anchor="middle" x="317.2365" y="-339.8" font-family="Times,serif" font-size="14.00" fill="#000000">cbc_34</text>
</g>
<!-- cbb_35 -->
<g id="node21" class="node">
<title>cbb_35</title>
<ellipse fill="none" stroke="#000000" cx="317.2365" cy="-246" rx="36.2677" ry="36.2677"/>
<ellipse fill="none" stroke="#000000" cx="317.2365" cy="-246" rx="40.2818" ry="40.2818"/>
<text text-anchor="middle" x="317.2365" y="-241.8" font-family="Times,serif" font-size="14.00" fill="#000000">cbb_35</text>
</g>
<!-- cba_36 -->
<g id="node22" class="node">
<title>cba_36</title>
<ellipse fill="none" stroke="#000000" cx="317.2365" cy="-148" rx="35.774" ry="35.774"/>
<ellipse fill="none" stroke="#000000" cx="317.2365" cy="-148" rx="39.7886" ry="39.7886"/>
<text text-anchor="middle" x="317.2365" y="-143.8" font-family="Times,serif" font-size="14.00" fill="#000000">cba_36</text>
</g>
<!-- start -->
<g id="node23" class="node">
<title>start</title>
<ellipse fill="none" stroke="#000000" cx="25.3324" cy="-1075" rx="25.166" ry="25.166"/>
<text text-anchor="middle" x="25.3324" y="-1070.8" font-family="Times,serif" font-size="14.00" fill="#000000">start</text>
</g>
<!-- a_1 -->
<g id="node24" class="node">
<title>a_1</title>
<ellipse fill="none" stroke="#000000" cx="113.6649" cy="-1756" rx="27" ry="18"/>
<text text-anchor="middle" x="113.6649" y="-1751.8" font-family="Times,serif" font-size="14.00" fill="#000000">a_1</text>
</g>
<!-- start&#45;&gt;a_1 -->
<g id="edge1" class="edge">
<title>start&#45;&gt;a_1</title>
<path fill="none" stroke="#000000" d="M28.634,-1100.4531C42.4406,-1206.8952 95.5048,-1615.9947 109.9921,-1727.685"/>
<polygon fill="#000000" stroke="#000000" points="106.5509,-1728.3645 111.3082,-1737.8312 113.4927,-1727.4641 106.5509,-1728.3645"/>
</g>
<!-- b_2 -->
<g id="node28" class="node">
<title>b_2</title>
<ellipse fill="none" stroke="#000000" cx="113.6649" cy="-1075" rx="27" ry="18"/>
<text text-anchor="middle" x="113.6649" y="-1070.8" font-family="Times,serif" font-size="14.00" fill="#000000">b_2</text>
</g>
<!-- start&#45;&gt;b_2 -->
<g id="edge13" class="edge">
<title>start&#45;&gt;b_2</title>
<path fill="none" stroke="#000000" d="M50.8818,-1075C58.8512,-1075 67.8104,-1075 76.411,-1075"/>
<polygon fill="#000000" stroke="#000000" points="76.6334,-1078.5001 86.6334,-1075 76.6334,-1071.5001 76.6334,-1078.5001"/>
</g>
<!-- c_3 -->
<g id="node32" class="node">
<title>c_3</title>
<ellipse fill="none" stroke="#000000" cx="113.6649" cy="-393" rx="27" ry="18"/>
<text text-anchor="middle" x="113.6649" y="-388.8" font-family="Times,serif" font-size="14.00" fill="#000000">c_3</text>
</g>
<!-- start&#45;&gt;c_3 -->
<g id="edge25" class="edge">
<title>start&#45;&gt;c_3</title>
<path fill="none" stroke="#000000" d="M28.634,-1049.5095C42.4406,-942.9111 95.5048,-533.2109 109.9921,-421.3566"/>
<polygon fill="#000000" stroke="#000000" points="113.4947,-421.5622 111.3082,-411.1955 106.5526,-420.663 113.4947,-421.5622"/>
</g>
<!-- aa_4 -->
<g id="node25" class="node">
<title>aa_4</title>
<ellipse fill="none" stroke="#000000" cx="208.8804" cy="-2083" rx="27" ry="18"/>
<text text-anchor="middle" x="208.8804" y="-2078.8" font-family="Times,serif" font-size="14.00" fill="#000000">aa_4</text>
</g>
<!-- a_1&#45;&gt;aa_4 -->
<g id="edge2" class="edge">
<title>a_1&#45;&gt;aa_4</title>
<path fill="none" stroke="#000000" d="M118.9197,-1774.0467C134.6889,-1828.2031 181.6877,-1989.6119 200.7314,-2055.0139"/>
<polygon fill="#000000" stroke="#000000" points="197.4856,-2056.3863 203.6418,-2065.0091 204.2065,-2054.4293 197.4856,-2056.3863"/>
</g>
<!-- ab_5 -->
<g id="node26" class="node">
<title>ab_5</title>
<ellipse fill="none" stroke="#000000" cx="208.8804" cy="-1853" rx="27.0958" ry="18"/>
<text text-anchor="middle" x="208.8804" y="-1848.8" font-family="Times,serif" font-size="14.00" fill="#000000">ab_5</text>
</g>
<!-- a_1&#45;&gt;ab_5 -->
<g id="edge3" class="edge">
<title>a_1&#45;&gt;ab_5</title>
<path fill="none" stroke="#000000" d="M128.5423,-1771.1563C144.1026,-1787.0081 168.7042,-1812.0709 186.5866,-1830.2884"/>
<polygon fill="#000000" stroke="#000000" points="184.2903,-1832.9454 193.7932,-1837.6301 189.2858,-1828.0418 184.2903,-1832.9454"/>
</g>
<!-- ac_6 -->
<g id="node27" class="node">
<title>ac_6</title>
<ellipse fill="none" stroke="#000000" cx="208.8804" cy="-1660" rx="27" ry="18"/>
<text text-anchor="middle" x="208.8804" y="-1655.8" font-family="Times,serif" font-size="14.00" fill="#000000">ac_6</text>
</g>
<!-- a_1&#45;&gt;ac_6 -->
<g id="edge4" class="edge">
<title>a_1&#45;&gt;ac_6</title>
<path fill="none" stroke="#000000" d="M128.9629,-1740.5759C144.6021,-1724.8079 169.0489,-1700.1596 186.7878,-1682.2746"/>
<polygon fill="#000000" stroke="#000000" points="189.3772,-1684.634 193.9342,-1675.0693 184.4072,-1679.7046 189.3772,-1684.634"/>
</g>
<!-- aa_4&#45;&gt;aab_7 -->
<g id="edge5" class="edge">
<title>aa_4&#45;&gt;aab_7</title>
<path fill="none" stroke="#000000" d="M226.2896,-2097.1387C241.1937,-2109.2429 263.1267,-2127.0555 281.7196,-2142.1554"/>
<polygon fill="#000000" stroke="#000000" points="279.7517,-2145.0661 289.7207,-2148.6534 284.1647,-2139.6323 279.7517,-2145.0661"/>
</g>
<!-- aa_4&#45;&gt;aac_8 -->
<g id="edge6" class="edge">
<title>aa_4&#45;&gt;aac_8</title>
<path fill="none" stroke="#000000" d="M235.9437,-2083C246.9134,-2083 259.8813,-2083 272.2,-2083"/>
<polygon fill="#000000" stroke="#000000" points="272.3368,-2086.5001 282.3368,-2083 272.3368,-2079.5001 272.3368,-2086.5001"/>
</g>
<!-- ab_5&#45;&gt;aba_9 -->
<g id="edge7" class="edge">
<title>ab_5&#45;&gt;aba_9</title>
<path fill="none" stroke="#000000" d="M219.5867,-1869.7767C232.509,-1889.6834 255.2356,-1923.6234 277.0958,-1951 279.9307,-1954.5502 282.9749,-1958.1779 286.073,-1961.7519"/>
<polygon fill="#000000" stroke="#000000" points="283.6311,-1964.2736 292.8813,-1969.4392 288.8714,-1959.6325 283.6311,-1964.2736"/>
</g>
<!-- ab_5&#45;&gt;abb_10 -->
<g id="edge8" class="edge">
<title>ab_5&#45;&gt;abb_10</title>
<path fill="none" stroke="#000000" d="M231.5953,-1863.272C243.0915,-1868.4707 257.4801,-1874.9774 271.163,-1881.165"/>
<polygon fill="#000000" stroke="#000000" points="269.925,-1884.4463 280.4788,-1885.3777 272.8093,-1878.0682 269.925,-1884.4463"/>
</g>
<!-- ab_5&#45;&gt;abc_11 -->
<g id="edge9" class="edge">
<title>ab_5&#45;&gt;abc_11</title>
<path fill="none" stroke="#000000" d="M231.5953,-1842.9376C243.1924,-1837.8003 257.7327,-1831.3592 271.5229,-1825.2504"/>
<polygon fill="#000000" stroke="#000000" points="273.1792,-1828.3448 280.9047,-1821.0944 270.344,-1821.9446 273.1792,-1828.3448"/>
</g>
<!-- ac_6&#45;&gt;aca_12 -->
<g id="edge10" class="edge">
<title>ac_6&#45;&gt;aca_12</title>
<path fill="none" stroke="#000000" d="M231.3318,-1670.1528C243.0167,-1675.4369 257.7416,-1682.0957 271.6842,-1688.4007"/>
<polygon fill="#000000" stroke="#000000" points="270.611,-1691.7566 281.1649,-1692.688 273.4954,-1685.3784 270.611,-1691.7566"/>
</g>
<!-- ac_6&#45;&gt;acb_13 -->
<g id="edge11" class="edge">
<title>ac_6&#45;&gt;acb_13</title>
<path fill="none" stroke="#000000" d="M231.5953,-1649.9376C243.1924,-1644.8003 257.7327,-1638.3592 271.5229,-1632.2504"/>
<polygon fill="#000000" stroke="#000000" points="273.1792,-1635.3448 280.9047,-1628.0944 270.344,-1628.9446 273.1792,-1635.3448"/>
</g>
<!-- ac_6&#45;&gt;acc_14 -->
<g id="edge12" class="edge">
<title>ac_6&#45;&gt;acc_14</title>
<path fill="none" stroke="#000000" d="M220.0548,-1643.2202C233.2388,-1623.6366 256.0353,-1590.436 277.0958,-1563 279.6632,-1559.6555 282.3747,-1556.2218 285.1277,-1552.8028"/>
<polygon fill="#000000" stroke="#000000" points="287.9658,-1554.8607 291.5783,-1544.9008 282.5432,-1550.4341 287.9658,-1554.8607"/>
</g>
<!-- ba_15 -->
<g id="node29" class="node">
<title>ba_15</title>
<ellipse fill="none" stroke="#000000" cx="208.8804" cy="-1271" rx="31.9393" ry="18"/>
<text text-anchor="middle" x="208.8804" y="-1266.8" font-family="Times,serif" font-size="14.00" fill="#000000">ba_15</text>
</g>
<!-- b_2&#45;&gt;ba_15 -->
<g id="edge14" class="edge">
<title>b_2&#45;&gt;ba_15</title>
<path fill="none" stroke="#000000" d="M122.1146,-1092.3937C138.8423,-1126.8275 176.2645,-1203.8606 196.0506,-1244.5902"/>
<polygon fill="#000000" stroke="#000000" points="192.9317,-1246.1799 200.4496,-1253.6453 199.2281,-1243.1211 192.9317,-1246.1799"/>
</g>
<!-- bb_16 -->
<g id="node30" class="node">
<title>bb_16</title>
<ellipse fill="none" stroke="#000000" cx="208.8804" cy="-1075" rx="32.4324" ry="18"/>
<text text-anchor="middle" x="208.8804" y="-1070.8" font-family="Times,serif" font-size="14.00" fill="#000000">bb_16</text>
</g>
<!-- b_2&#45;&gt;bb_16 -->
<g id="edge15" class="edge">
<title>b_2&#45;&gt;bb_16</title>
<path fill="none" stroke="#000000" d="M140.6951,-1075C148.6776,-1075 157.6157,-1075 166.3257,-1075"/>
<polygon fill="#000000" stroke="#000000" points="166.3748,-1078.5001 176.3747,-1075 166.3747,-1071.5001 166.3748,-1078.5001"/>
</g>
<!-- bc_17 -->
<g id="node31" class="node">
<title>bc_17</title>
<ellipse fill="none" stroke="#000000" cx="208.8804" cy="-879" rx="31.9393" ry="18"/>
<text text-anchor="middle" x="208.8804" y="-874.8" font-family="Times,serif" font-size="14.00" fill="#000000">bc_17</text>
</g>
<!-- b_2&#45;&gt;bc_17 -->
<g id="edge16" class="edge">
<title>b_2&#45;&gt;bc_17</title>
<path fill="none" stroke="#000000" d="M122.1146,-1057.6063C138.8423,-1023.1725 176.2645,-946.1394 196.0506,-905.4098"/>
<polygon fill="#000000" stroke="#000000" points="199.2281,-906.8789 200.4496,-896.3547 192.9317,-903.8201 199.2281,-906.8789"/>
</g>
<!-- ba_15&#45;&gt;baa_18 -->
<g id="edge17" class="edge">
<title>ba_15&#45;&gt;baa_18</title>
<path fill="none" stroke="#000000" d="M220.0766,-1287.93C233.2811,-1307.694 256.0969,-1341.2168 277.0958,-1369 279.6694,-1372.405 282.3853,-1375.9039 285.1412,-1379.3899"/>
<polygon fill="#000000" stroke="#000000" points="282.6132,-1381.8324 291.596,-1387.4502 288.0771,-1377.4568 282.6132,-1381.8324"/>
</g>
<!-- ba_15&#45;&gt;bab_19 -->
<g id="edge18" class="edge">
<title>ba_15&#45;&gt;bab_19</title>
<path fill="none" stroke="#000000" d="M233.7394,-1282.2416C244.9011,-1287.2891 258.4387,-1293.4109 271.3354,-1299.2429"/>
<polygon fill="#000000" stroke="#000000" points="270.0159,-1302.4875 280.5697,-1303.4188 272.9002,-1296.1093 270.0159,-1302.4875"/>
</g>
<!-- ba_15&#45;&gt;bac_20 -->
<g id="edge19" class="edge">
<title>ba_15&#45;&gt;bac_20</title>
<path fill="none" stroke="#000000" d="M233.7394,-1259.7584C245.0017,-1254.6655 258.6828,-1248.4787 271.6838,-1242.5995"/>
<polygon fill="#000000" stroke="#000000" points="273.3165,-1245.7025 280.986,-1238.3929 270.4321,-1239.3243 273.3165,-1245.7025"/>
</g>
<!-- bb_16&#45;&gt;bba_21 -->
<g id="edge20" class="edge">
<title>bb_16&#45;&gt;bba_21</title>
<path fill="none" stroke="#000000" d="M234.0118,-1086.3647C245.0795,-1091.3697 258.4433,-1097.413 271.1923,-1103.1782"/>
<polygon fill="#000000" stroke="#000000" points="269.7714,-1106.3769 280.3252,-1107.3083 272.6557,-1099.9987 269.7714,-1106.3769"/>
</g>
<!-- bb_16&#45;&gt;bbc_22 -->
<g id="edge21" class="edge">
<title>bb_16&#45;&gt;bbc_22</title>
<path fill="none" stroke="#000000" d="M234.0118,-1063.6353C245.0795,-1058.6303 258.4433,-1052.587 271.1923,-1046.8218"/>
<polygon fill="#000000" stroke="#000000" points="272.6557,-1050.0013 280.3252,-1042.6917 269.7714,-1043.6231 272.6557,-1050.0013"/>
</g>
<!-- bc_17&#45;&gt;bca_23 -->
<g id="edge22" class="edge">
<title>bc_17&#45;&gt;bca_23</title>
<path fill="none" stroke="#000000" d="M233.7394,-890.2416C245.0017,-895.3345 258.6828,-901.5213 271.6838,-907.4005"/>
<polygon fill="#000000" stroke="#000000" points="270.4321,-910.6757 280.986,-911.6071 273.3165,-904.2975 270.4321,-910.6757"/>
</g>
<!-- bc_17&#45;&gt;bcb_24 -->
<g id="edge23" class="edge">
<title>bc_17&#45;&gt;bcb_24</title>
<path fill="none" stroke="#000000" d="M233.7394,-867.7584C244.9011,-862.7109 258.4387,-856.5891 271.3354,-850.7571"/>
<polygon fill="#000000" stroke="#000000" points="272.9002,-853.8907 280.5697,-846.5812 270.0159,-847.5125 272.9002,-853.8907"/>
</g>
<!-- bc_17&#45;&gt;bcc_25 -->
<g id="edge24" class="edge">
<title>bc_17&#45;&gt;bcc_25</title>
<path fill="none" stroke="#000000" d="M220.0766,-862.07C233.2811,-842.306 256.0969,-808.7832 277.0958,-781 279.6694,-777.595 282.3853,-774.0961 285.1412,-770.6101"/>
<polygon fill="#000000" stroke="#000000" points="288.0771,-772.5432 291.596,-762.5498 282.6132,-768.1676 288.0771,-772.5432"/>
</g>
<!-- ca_26 -->
<g id="node33" class="node">
<title>ca_26</title>
<ellipse fill="none" stroke="#000000" cx="208.8804" cy="-490" rx="31.4462" ry="18"/>
<text text-anchor="middle" x="208.8804" y="-485.8" font-family="Times,serif" font-size="14.00" fill="#000000">ca_26</text>
</g>
<!-- c_3&#45;&gt;ca_26 -->
<g id="edge26" class="edge">
<title>c_3&#45;&gt;ca_26</title>
<path fill="none" stroke="#000000" d="M128.5423,-408.1563C144.011,-423.9149 168.4151,-448.7763 186.2703,-466.9662"/>
<polygon fill="#000000" stroke="#000000" points="183.9736,-469.6228 193.4765,-474.3075 188.9691,-464.7192 183.9736,-469.6228"/>
</g>
<!-- cb_27 -->
<g id="node34" class="node">
<title>cb_27</title>
<ellipse fill="none" stroke="#000000" cx="208.8804" cy="-295" rx="31.9393" ry="18"/>
<text text-anchor="middle" x="208.8804" y="-290.8" font-family="Times,serif" font-size="14.00" fill="#000000">cb_27</text>
</g>
<!-- c_3&#45;&gt;cb_27 -->
<g id="edge27" class="edge">
<title>c_3&#45;&gt;cb_27</title>
<path fill="none" stroke="#000000" d="M128.5423,-377.6875C144.011,-361.7664 168.4151,-336.6487 186.2703,-318.2712"/>
<polygon fill="#000000" stroke="#000000" points="189.0183,-320.4655 193.4765,-310.8543 183.9978,-315.5876 189.0183,-320.4655"/>
</g>
<!-- cc_28 -->
<g id="node35" class="node">
<title>cc_28</title>
<ellipse fill="none" stroke="#000000" cx="208.8804" cy="-72" rx="31.4462" ry="18"/>
<text text-anchor="middle" x="208.8804" y="-67.8" font-family="Times,serif" font-size="14.00" fill="#000000">cc_28</text>
</g>
<!-- c_3&#45;&gt;cc_28 -->
<g id="edge28" class="edge">
<title>c_3&#45;&gt;cc_28</title>
<path fill="none" stroke="#000000" d="M118.9197,-375.2844C134.652,-322.2462 181.4678,-164.4161 200.5971,-99.9252"/>
<polygon fill="#000000" stroke="#000000" points="204.0361,-100.639 203.5244,-90.0565 197.3251,-98.6483 204.0361,-100.639"/>
</g>
<!-- ca_26&#45;&gt;caa_29 -->
<g id="edge29" class="edge">
<title>ca_26&#45;&gt;caa_29</title>
<path fill="none" stroke="#000000" d="M220.2912,-507.131C233.5101,-526.7584 256.1607,-559.7273 277.0958,-587 279.6632,-590.3445 282.3747,-593.7782 285.1277,-597.1972"/>
<polygon fill="#000000" stroke="#000000" points="282.5432,-599.5659 291.5783,-605.0992 287.9658,-595.1393 282.5432,-599.5659"/>
</g>
<!-- ca_26&#45;&gt;cab_30 -->
<g id="edge30" class="edge">
<title>ca_26&#45;&gt;cab_30</title>
<path fill="none" stroke="#000000" d="M233.7394,-501.0122C245.0017,-506.0012 258.6828,-512.0617 271.6838,-517.8209"/>
<polygon fill="#000000" stroke="#000000" points="270.4253,-521.0914 280.986,-521.9416 273.2605,-514.6913 270.4253,-521.0914"/>
</g>
<!-- ca_26&#45;&gt;cac_31 -->
<g id="edge31" class="edge">
<title>ca_26&#45;&gt;cac_31</title>
<path fill="none" stroke="#000000" d="M233.468,-478.8811C244.8234,-473.7461 258.6806,-467.4797 271.8296,-461.5336"/>
<polygon fill="#000000" stroke="#000000" points="273.5636,-464.5907 281.2331,-457.2812 270.6793,-458.2126 273.5636,-464.5907"/>
</g>
<!-- cb_27&#45;&gt;cbc_34 -->
<g id="edge32" class="edge">
<title>cb_27&#45;&gt;cbc_34</title>
<path fill="none" stroke="#000000" d="M233.7394,-306.2416C245.0017,-311.3345 258.6828,-317.5213 271.6838,-323.4005"/>
<polygon fill="#000000" stroke="#000000" points="270.4321,-326.6757 280.986,-327.6071 273.3165,-320.2975 270.4321,-326.6757"/>
</g>
<!-- cb_27&#45;&gt;cbb_35 -->
<g id="edge33" class="edge">
<title>cb_27&#45;&gt;cbb_35</title>
<path fill="none" stroke="#000000" d="M233.7394,-283.7584C244.9011,-278.7109 258.4387,-272.5891 271.3354,-266.7571"/>
<polygon fill="#000000" stroke="#000000" points="272.9002,-269.8907 280.5697,-262.5812 270.0159,-263.5125 272.9002,-269.8907"/>
</g>
<!-- cb_27&#45;&gt;cba_36 -->
<g id="edge34" class="edge">
<title>cb_27&#45;&gt;cba_36</title>
<path fill="none" stroke="#000000" d="M220.0766,-278.07C233.2811,-258.306 256.0969,-224.7832 277.0958,-197 279.6694,-193.595 282.3853,-190.0961 285.1412,-186.6101"/>
<polygon fill="#000000" stroke="#000000" points="288.0771,-188.5432 291.596,-178.5498 282.6132,-184.1676 288.0771,-188.5432"/>
</g>
<!-- ccb_32 -->
<g id="node36" class="node">
<title>ccb_32</title>
<ellipse fill="none" stroke="#000000" cx="317.2365" cy="-72" rx="35.7887" ry="18"/>
<text text-anchor="middle" x="317.2365" y="-67.8" font-family="Times,serif" font-size="14.00" fill="#000000">ccb_32</text>
</g>
<!-- cc_28&#45;&gt;ccb_32 -->
<g id="edge35" class="edge">
<title>cc_28&#45;&gt;ccb_32</title>
<path fill="none" stroke="#000000" d="M240.2214,-72C249.8782,-72 260.7198,-72 271.1518,-72"/>
<polygon fill="#000000" stroke="#000000" points="271.3882,-75.5001 281.3882,-72 271.3882,-68.5001 271.3882,-75.5001"/>
</g>
<!-- cca_33 -->
<g id="node37" class="node">
<title>cca_33</title>
<ellipse fill="none" stroke="#000000" cx="317.2365" cy="-18" rx="35.2956" ry="18"/>
<text text-anchor="middle" x="317.2365" y="-13.8" font-family="Times,serif" font-size="14.00" fill="#000000">cca_33</text>
</g>
<!-- cc_28&#45;&gt;cca_33 -->
<g id="edge36" class="edge">
<title>cc_28&#45;&gt;cca_33</title>
<path fill="none" stroke="#000000" d="M232.6596,-60.1495C247.3453,-52.8308 266.4369,-43.3163 282.7641,-35.1795"/>
<polygon fill="#000000" stroke="#000000" points="284.6147,-38.1679 292.0037,-30.5749 281.4924,-31.9028 284.6147,-38.1679"/>
</g>
</g>
</svg>
